<svg xmlns="http://www.w3.org/2000/svg" xmlns:xlink="http://www.w3.org/1999/xlink" viewBox="0 0 3000 800"><defs><clipPath id="a"><path d="M400,400V180.2778A602.9369,602.9369,0,0,0,180.2778,400Z" style="fill:none"/></clipPath><clipPath id="b"><rect x="580" y="350" width="320" height="350" style="fill:none"/></clipPath><clipPath id="c"><rect x="2300" y="500" width="200" height="200" style="fill:none"/></clipPath></defs><rect width="3000" height="800" style="fill:#fff"/><rect x="1900" y="200" width="200" height="500" style="fill:#2da84f"/><path d="M1700,110V690H1510V110h190m0-10H1510a10,10,0,0,0-10,10V690a10,10,0,0,0,10,10h190a10,10,0,0,0,10-10V110a10,10,0,0,0-10-10Z" style="fill:#eceff1"/><path d="M1500,530V690H1100V530h400m0-10H1100a10,10,0,0,0-10,10V690a10,10,0,0,0,10,10h400a10,10,0,0,0,10-10V530a10,10,0,0,0-10-10Z" style="fill:#eceff1"/><path d="M1200,110a90,90,0,0,1,0,180H910V200a90.102,90.102,0,0,1,90-90h200m0-10H1000A100,100,0,0,0,900,200V300h300a100,100,0,0,0,0-200Z" style="fill:#ced8dd"/><rect x="100" y="100" width="300" height="300" transform="translate(500 0) rotate(90)" style="fill:#3c4043"/><line x1="100" y1="400" x2="290" y2="210" style="fill:none;stroke:#fff;stroke-miterlimit:10;stroke-width:10px"/><path d="M250,110a140,140,0,1,1-98.9951,41.0051A139.084,139.084,0,0,1,250,110m0-10A150,150,0,1,0,400,250,150,150,0,0,0,250,100Z" style="fill:#3e81f6"/><path d="M100,700H700V100C368.6292,100,100,368.6292,100,700Z" style="fill:#ced8dd"/><path d="M300,700H700V300C479.0861,300,300,479.0861,300,700Z" style="fill:#fcbc00"/><path d="M2300,100V700h600C2900,368.6292,2631.3708,100,2300,100Z" style="fill:#2da84f"/><path d="M2300,300V700h400C2700,479.0861,2520.914,300,2300,300Z" style="fill:#ec412d"/><path d="M2600,110a90,90,0,0,1,0,180H2310V200a90.102,90.102,0,0,1,90-90h200m0-10H2400a100,100,0,0,0-100,100V300h300a100,100,0,0,0,0-200Z" style="fill:#3c4043"/><path d="M550,410a140,140,0,1,1-98.9951,41.0051A139.084,139.084,0,0,1,550,410m0-10A150,150,0,1,0,700,550,150,150,0,0,0,550,400Z" style="fill:#3e81f6"/><rect x="500" y="500" width="200" height="200" transform="translate(0 1200) rotate(-90)" style="fill:#fff"/><rect x="625" y="425" width="350" height="200" transform="translate(275 1325) rotate(-90)" style="fill:#ec412d"/><rect x="745" y="345" width="510" height="200" transform="translate(555 1445) rotate(-90)" style="fill:#ced8dd"/><line x1="2580" y1="700" x2="2770" y2="510" style="fill:none;stroke:#3c4043;stroke-linejoin:round;stroke-width:10px"/><polyline points="2620 510 2770 510 2770 660" style="fill:none;stroke:#3c4043;stroke-miterlimit:10;stroke-width:10px"/><rect x="2280" y="400" width="60" height="60" style="fill:none;stroke:#fff;stroke-miterlimit:10;stroke-width:10px"/><rect x="2280" y="460" width="60" height="60" style="fill:none;stroke:#fff;stroke-miterlimit:10;stroke-width:10px"/><rect x="2280" y="520" width="60" height="60" style="fill:none;stroke:#fff;stroke-miterlimit:10;stroke-width:10px"/><rect x="2280" y="580" width="60" height="60" style="fill:none;stroke:#fff;stroke-miterlimit:10;stroke-width:10px"/><rect x="2280" y="640" width="60" height="60" style="fill:none;stroke:#fff;stroke-miterlimit:10;stroke-width:10px"/><rect x="2340" y="400" width="60" height="60" style="fill:none;stroke:#fff;stroke-miterlimit:10;stroke-width:10px"/><rect x="2340" y="460" width="60" height="60" style="fill:none;stroke:#fff;stroke-miterlimit:10;stroke-width:10px"/><rect x="2340" y="520" width="60" height="60" style="fill:none;stroke:#fff;stroke-miterlimit:10;stroke-width:10px"/><rect x="2340" y="580" width="60" height="60" style="fill:none;stroke:#fff;stroke-miterlimit:10;stroke-width:10px"/><rect x="2340" y="640" width="60" height="60" style="fill:none;stroke:#fff;stroke-miterlimit:10;stroke-width:10px"/><rect x="2400" y="400" width="60" height="60" style="fill:none;stroke:#fff;stroke-miterlimit:10;stroke-width:10px"/><rect x="2400" y="460" width="60" height="60" style="fill:none;stroke:#fff;stroke-miterlimit:10;stroke-width:10px"/><rect x="2400" y="520" width="60" height="60" style="fill:none;stroke:#fff;stroke-miterlimit:10;stroke-width:10px"/><rect x="2400" y="580" width="60" height="60" style="fill:none;stroke:#fff;stroke-miterlimit:10;stroke-width:10px"/><rect x="2400" y="640" width="60" height="60" style="fill:none;stroke:#fff;stroke-miterlimit:10;stroke-width:10px"/><rect x="2460" y="400" width="60" height="60" style="fill:none;stroke:#fff;stroke-miterlimit:10;stroke-width:10px"/><rect x="2460" y="460" width="60" height="60" style="fill:none;stroke:#fff;stroke-miterlimit:10;stroke-width:10px"/><rect x="2460" y="520" width="60" height="60" style="fill:none;stroke:#fff;stroke-miterlimit:10;stroke-width:10px"/><rect x="2460" y="580" width="60" height="60" style="fill:none;stroke:#fff;stroke-miterlimit:10;stroke-width:10px"/><rect x="2460" y="640" width="60" height="60" style="fill:none;stroke:#fff;stroke-miterlimit:10;stroke-width:10px"/><rect x="2520" y="400" width="60" height="60" style="fill:none;stroke:#fff;stroke-miterlimit:10;stroke-width:10px"/><rect x="2520" y="460" width="60" height="60" style="fill:none;stroke:#fff;stroke-miterlimit:10;stroke-width:10px"/><rect x="2520" y="520" width="60" height="60" style="fill:none;stroke:#fff;stroke-miterlimit:10;stroke-width:10px"/><rect x="2520" y="580" width="60" height="60" style="fill:none;stroke:#fff;stroke-miterlimit:10;stroke-width:10px"/><rect x="2520" y="640" width="60" height="60" style="fill:none;stroke:#fff;stroke-miterlimit:10;stroke-width:10px"/><rect x="2100" y="300" width="200" height="400" style="fill:#fcbc00"/><g style="clip-path:url(#a)"><path d="M250,110a140,140,0,1,1-98.9951,41.0051A139.084,139.084,0,0,1,250,110m0-10A150,150,0,1,0,400,250,150,150,0,0,0,250,100Z" style="fill:#fff"/></g><polyline points="140 210 290 210 290 360" style="fill:none;stroke:#fff;stroke-miterlimit:10;stroke-width:10px"/><line x1="1050" y1="540" x2="900" y2="690" style="fill:none;stroke:#3c4043;stroke-linejoin:round;stroke-width:10px"/><polyline points="900 390 1050 540 760 540" style="fill:none;stroke:#3c4043;stroke-linejoin:round;stroke-width:10px"/><path d="M1090,214.1421V690H614.1421L1090,214.1421M1100,190,590,700h510V190Z" style="fill:#3e81f6"/><g style="clip-path:url(#b)"><path d="M1090,214.1421V690H614.1421L1090,214.1421M1100,190,590,700h510V190Z" style="fill:#fff"/></g><rect x="790" y="590" width="20" height="200" transform="translate(110 1490) rotate(-90)" style="fill:#ec412d"/><rect x="2300" y="500" width="200" height="200" style="fill:#afbec6"/><g style="clip-path:url(#c)"><polyline points="2290 620 2400 510 2510 620" style="fill:none;stroke:#fff;stroke-miterlimit:10;stroke-width:10px"/></g><line x1="2400" y1="510" x2="2400" y2="700" style="fill:none;stroke:#fff;stroke-miterlimit:10;stroke-width:10px"/><rect x="1329.2893" y="522.2893" width="141.4214" height="141.4214" transform="translate(-9.2638 1163.6352) rotate(-45)" style="fill:none;stroke:#3e81f6;stroke-miterlimit:10;stroke-width:10px"/><rect x="1246.4466" y="322.2893" width="707.1068" height="141.4214" transform="translate(190.7362 1246.4779) rotate(-45)" style="fill:#fff;stroke:#3e81f6;stroke-miterlimit:10;stroke-width:10px"/><rect x="1608.5786" y="172.2893" width="282.8427" height="141.4214" transform="translate(340.7362 1308.6099) rotate(-45)" style="fill:#fff;stroke:#3e81f6;stroke-miterlimit:10;stroke-width:10px"/><rect x="1229.3402" y="280.9909" width="141.4214" height="424.12" transform="translate(32.1364 1063.6861) rotate(-45)" style="fill:#fff;stroke:#3e81f6;stroke-miterlimit:10;stroke-width:10px"/><rect x="1329.2893" y="522.2893" width="141.4214" height="141.4214" transform="translate(-9.2638 1163.6352) rotate(-45)" style="fill:#fff;stroke:#3e81f6;stroke-miterlimit:10;stroke-width:10px"/><path d="M2000,500H1900V700h200V600A100,100,0,0,0,2000,500Z" style="fill:#eceff1"/><path d="M2000,510a90.102,90.102,0,0,1,90,90v90H1800a90,90,0,0,1,0-180h200m0-10H1800a100,100,0,0,0,0,200h300V600a100,100,0,0,0-100-100Z" style="fill:#ced8dd"/></svg>